<svg width="100" height="100" viewBox="0 0 100 100" fill="none" xmlns="http://www.w3.org/2000/svg">
<rect width="100" height="100" fill="white"/>
<path d="M91.4 19C91.4 21.0667 91.2333 22.8333 90.9 24.3C90.5667 25.7667 90.3667 26.6667 90.3 27C89.4333 29.9333 88.9667 33.0333 88.9 36.3C88.0333 41.7667 86.3 49.4 83.7 59.2L82.3 64.7C82.3 64.9667 81.8333 66.4 80.9 69C79.3667 73.6667 78.5 76.4333 78.3 77.3C77.9 79.1667 77.3667 80.3667 76.7 80.9C76.1 81.4333 75.1 81.7 73.7 81.7C70.6333 81.7 68 81.4333 65.8 80.9C63.6667 80.4333 62.0333 79.2333 60.9 77.3L56.2 64.3C56.2 63.7 56 62.9333 55.6 62C55.2667 61 54.9333 60.2 54.6 59.6C54.3333 58.9333 54.1333 58.4667 54 58.2C52.2667 54.7333 51.4 52.2667 51.4 50.8C51.4 50.4667 51.4333 50.2333 51.5 50.1L49.5 42.6L49.1 42.2C47.9 45.9333 46.5 49.7333 44.9 53.6C43.3 57.4667 42.3333 59.8333 42 60.7C41.6667 61.5667 40.8333 63.5667 39.5 66.7C38.2333 69.7667 37.3333 72.3667 36.8 74.5C36.4667 74.7 36.2 75.1667 36 75.9C35.8667 76.6333 35.7667 77.1 35.7 77.3C35.5 78.3667 35.2667 79.1667 35 79.7C34.8 80.3 34.4333 80.6 33.9 80.6C33.7 80.6 33.3667 80.4333 32.9 80.1C32.5 79.8333 32.2333 79.7 32.1 79.7C31.8333 79.5 31.0333 79.4 29.7 79.4C27.9 79.4 26.4 79.2 25.2 78.8C24 78.4667 23.1667 77.5667 22.7 76.1C22.4333 74.5667 21.9667 73.0333 21.3 71.5C20.7 69.9 20.3333 68.9667 20.2 68.7C19.2667 66.5667 18.6333 64.9667 18.3 63.9C18.1667 63.4333 17.7667 61.7333 17.1 58.8C16.4333 55.8 15.6333 53.1667 14.7 50.9V50.4C14.7 49.5333 14.1 47.6667 12.9 44.8C11.9667 42.5333 11.2333 40.5667 10.7 38.9C10.1667 37.1667 9.9 35.5667 9.9 34.1C9.9 33.6333 9.93333 33.3 10 33.1C8.6 27.1667 7.03333 22.5667 5.3 19.3C5.3 19.0333 5.23333 18.7 5.1 18.3C4.96667 17.9 4.9 17.6 4.9 17.4C4.9 16 5.96667 15.3 8.1 15.3C8.83333 15.3 9.86667 15.3667 11.2 15.5C12.2 15.7 13.2667 15.8 14.4 15.8C14.7333 15.8 15.1 15.6 15.5 15.2C15.9667 14.7333 16.4 14.5 16.8 14.5C17.2 14.5 17.5333 14.7333 17.8 15.2C18.1333 15.6 18.3 16.0667 18.3 16.6C18.3 17.0667 18.1667 17.4333 17.9 17.7C17.9 18.5 18.1 19.6 18.5 21C18.9667 22.3333 19.4333 23.2333 19.9 23.7C21.9 28.1 23.6 32.6667 25 37.4C25.2667 38.2 25.6 39.4 26 41C26.6 43.3333 27.2 45.3667 27.8 47.1C28.4667 48.8333 29.2667 50.4667 30.2 52L31.4 49.4C32.4 47.1333 33.0333 45.5 33.3 44.5C33.7667 42.9667 34.1667 41.4 34.5 39.8C35.1667 37.1333 35.8 34.9333 36.4 33.2C37.0667 31.4 38.0333 29.5333 39.3 27.6C39.8333 26.6 40.4667 25.0667 41.2 23C42.4 20 43.5 17.7667 44.5 16.3C45.5 14.8333 46.9 14.1 48.7 14.1C50.0333 14.1 50.9667 14.5 51.5 15.3C52.1 16.0333 52.9 17.8 53.9 20.6C54.1667 21.2 54.5 22.0667 54.9 23.2C55.3 24.3333 55.8667 25.8 56.6 27.6C57.3333 29.4 58.1 31.6 58.9 34.2C60.5667 39.3333 62.0667 43.3667 63.4 46.3C64.7333 49.2333 66.2 50.8333 67.8 51.1C68.4667 51.1 69 50.5333 69.4 49.4C69.8 48.2 70.1 47 70.3 45.8C70.5667 44.6 70.7333 43.8 70.8 43.4C71.1333 41.6 71.7667 39.5667 72.7 37.3L73.6 34.6C73.9333 33.6 74.1333 32.5 74.2 31.3C74.4667 29.4333 74.7667 28.0667 75.1 27.2C75.9667 25.5333 76.6 24.1333 77 23C77.4 21.8 77.7333 20.5333 78 19.2C78.0667 18.9333 78.1667 18.4333 78.3 17.7C78.5 16.9 78.7667 16.1333 79.1 15.4C79.3667 15.2667 79.8 15.2 80.4 15.2H81.3C82.3 15.2 83 15 83.4 14.6H90.5L91.3 15.7L91.4 19ZM86.6 16.1C84.7333 16.1667 83.3 16.4 82.3 16.8C81.3 17.2 80.7333 18.1667 80.6 19.7C81.5333 18.9 82.8333 18.2667 84.5 17.8C85.2333 17.6 85.7667 17.4 86.1 17.2C86.4333 16.9333 86.6 16.5667 86.6 16.1ZM43.5 24.4C43.7 24.2 44 24.1 44.4 24.1L45.5 24.2C46.0333 24.2 46.3 23.9333 46.3 23.4H52.6C52.4667 23 52.2333 22.1 51.9 20.7C51.6333 19.3 51.2 18.2 50.6 17.4C50.0667 16.6 49.3667 16.2 48.5 16.2L45.9 16.9C47.2333 17.5 48.2667 17.8 49 17.8L49.5 17.7C49.5667 17.7667 49.8 18 50.2 18.4C50.6 18.8 50.8 19.2333 50.8 19.7C50.8 20.0333 50.2 20.5667 49 21.3C47.8667 22.0333 46.9667 22.4 46.3 22.4C46.1 22.4 45.9333 22.3333 45.8 22.2C45.8 21.8667 46 21.5667 46.4 21.3C46.8667 21.0333 47.4333 20.7667 48.1 20.5C48.7667 20.1667 49.1 19.9 49.1 19.7C49.1 19.5667 49.0333 19.4333 48.9 19.3C48.8333 19.1 48.7667 18.9667 48.7 18.9L45.9 18.1C45.9 18.1 45.8333 18.1667 45.7 18.3C45.6333 18.3667 45.6 18.4333 45.6 18.5C45.3333 18.9667 44.9333 19.7 44.4 20.7C43.9333 21.6333 43.6333 22.2 43.5 22.4L45.1 21.6C45.1667 21.6667 45.2 21.7667 45.2 21.9C45.2 22.0333 45.2 22.1333 45.2 22.2C45.2 22.5333 45.1 22.8 44.9 23C44.7 23.2 44.4667 23.3667 44.2 23.5C44 23.6333 43.7667 23.8 43.5 24V24.4ZM89 22.9C89 22.2333 88.9667 21.6667 88.9 21.2C88.8333 20.7333 88.8 20.4 88.8 20.2C88.8 19.6667 88.9 18.9667 89.1 18.1C89.3667 17.2333 89.5 16.6 89.5 16.2C88.9667 16.2 88.4667 16.3 88 16.5C87.6 16.6333 87.4 16.8667 87.4 17.2C87.4 17.6667 86.4667 18.1667 84.6 18.7C83.3333 19.1 82.5667 19.4333 82.3 19.7C82.7667 20.2333 83.1 20.5 83.3 20.5C83.5 20.5 83.6667 20.3667 83.8 20.1C84 19.8333 84.1667 19.7 84.3 19.7C84.4333 19.7 84.6 19.7667 84.8 19.9C85 20.0333 85.2 20.1 85.4 20.1C85.6667 20.1 85.8333 20.0667 85.9 20C86.0333 19.8667 86.1333 19.7667 86.2 19.7C86.7333 19.7 87 19.8333 87 20.1C87 20.6333 86.6 21.0667 85.8 21.4C85.0667 21.6667 84 21.9333 82.6 22.2C81 22.6 79.9667 22.9333 79.5 23.2C80.2333 23.2 81.2667 23.1333 82.6 23C84.2 22.8667 85.3667 22.8 86.1 22.8C86.5667 22.8 86.9 22.8667 87.1 23C87.3 23.0667 87.4 23.3 87.4 23.7C87.4 24.7 86.8667 25.2 85.8 25.2V24.8C85.2667 25.2 84.4667 25.4667 83.4 25.6C82.6 25.8 81.9333 26 81.4 26.2C80.9333 26.4 80.5667 26.7333 80.3 27.2C80.9 27.2 81.7333 27.1333 82.8 27C84 26.8667 84.9 26.8 85.5 26.8C86.2333 26.8 86.6 27.0667 86.6 27.6C86.6 27.8 85.3333 28.5 82.8 29.7C80.3333 30.9 78.7 31.5 77.9 31.5C77.7667 31.5 77.6333 31.4667 77.5 31.4C77.3667 31.3333 77.2667 31.2667 77.2 31.2C77.4667 30.8 77.9667 30.4333 78.7 30.1C79.4333 29.7 80.0667 29.4 80.6 29.2C81.1333 29 81.5 28.8667 81.7 28.8C82.9667 28.4 83.7 28.1333 83.9 28C82.1 28 80.7667 28.0667 79.9 28.2C79.0333 28.3333 78.3667 28.4 77.9 28.4L77.5 28C77.3667 28 77.2 28.0333 77 28.1C76.8667 28.1667 76.7667 28.2667 76.7 28.4C76.4333 29.5333 76 31.4333 75.4 34.1C74.8667 36.7667 74.6 38.3 74.6 38.7C75.2 38.7 76.1 38.5667 77.3 38.3C78.5 38.0333 79.2333 37.7333 79.5 37.4C79.5667 37.3333 79.6333 37.2333 79.7 37.1C79.7667 36.9 79.8333 36.7667 79.9 36.7C80.2333 36.5 80.8667 36.3333 81.8 36.2C82.7333 36 83.4333 35.7333 83.9 35.4C82.9667 35.4 81.6333 35.5333 79.9 35.8C78.0333 36.0667 76.7333 36.2 76 36.2C76 35.5333 76.2667 35.0333 76.8 34.7C77.3333 34.3 77.9333 34 78.6 33.8C79.3333 33.5333 79.9 33.3 80.3 33.1L85 30.7C84.2 30.7 83.4333 30.8 82.7 31C81.7667 31.1333 81.0667 31.2 80.6 31.2L81.4 30.4C81.7333 30.2667 82.2333 30.1333 82.9 30C83.6333 29.8 84.3333 29.6667 85 29.6C85.2 29.6 85.5 29.6333 85.9 29.7C86.3 29.7667 86.5333 29.8333 86.6 29.9C87.2 29.9667 87.7333 29.0667 88.2 27.2C88.7333 25.3333 89 23.9 89 22.9ZM11.6 18.5C11.8667 18.3 12.3 18.1667 12.9 18.1C13.5667 17.9667 14.0667 17.8333 14.4 17.7L12.8 17.2C12.6667 17.2 12.4667 17.3 12.2 17.5C12 17.7 11.8 17.8 11.6 17.8V18.5ZM6.9 17.3C7.56667 18.6333 8.1 19.5667 8.5 20.1V20.5L9.2 18.9L8.8 18.5C9.46667 18.3 10 17.9 10.4 17.3H6.9ZM11.6 28.5C11.6 28.9 11.7333 29.1333 12 29.2C12.2667 29.0667 12.5667 28.8 12.9 28.4C13.3 28 13.7 27.6667 14.1 27.4C14.5 27.0667 14.9333 26.9 15.4 26.9C15.4 27.5667 14.9667 28.2333 14.1 28.9C13.3 29.5667 12.8667 29.9333 12.8 30C12.8 30.2667 13.0333 30.4 13.5 30.4C14.2333 30.4 15.3 30.2 16.7 29.8C18.1667 29.4 19.1 29.1 19.5 28.9C19.5667 28.8333 19.4 28.3667 19 27.5C18.6667 26.5667 18.4333 25.9333 18.3 25.6C17.9667 25.6 17.6 25.7333 17.2 26C16.8 26.2 16.5 26.4667 16.3 26.8C16.3 26 16.3333 25.4667 16.4 25.2C16.5333 24.8667 16.8 24.7 17.2 24.7C17.4667 24.7 17.7 24.7333 17.9 24.8C17.5667 23.5333 17.1 22.1667 16.5 20.7C15.9 19.2333 15.4667 18.5 15.2 18.5C15.0667 18.5 14.5 19 13.5 20C12.5 20.9333 11.6 21.9 10.8 22.9C11.0667 22.8333 11.8 22.6 13 22.2C14.2667 21.8 15.1 21.6 15.5 21.6C15.7 21.6 15.8667 21.6333 16 21.7C16.1333 21.7667 16.2333 21.9 16.3 22.1C16.2333 22.3667 15.6333 22.6333 14.5 22.9C13.3667 23.1667 12.5333 23.3 12 23.3V24.1C11.7333 24.1 11.5333 24.1 11.4 24.1C11.2667 24.0333 11.1667 24 11.1 24C10.9667 24 10.7333 24.1333 10.4 24.4L11.2 25.6C11.6667 25.4 12.1667 25.0667 12.7 24.6C13.3 24.0667 13.8 23.7 14.2 23.5C14.6667 23.3 15.2667 23.2 16 23.2C15.8 23.2667 15.3667 23.6 14.7 24.2C14.0333 24.7333 13.5333 25.2 13.2 25.6H14.6C14.6 25.9333 14.4333 26.2 14.1 26.4C13.8333 26.6 13.3333 26.8667 12.6 27.2C11.9333 27.4667 11.6 27.7667 11.6 28.1V28.5ZM12 20.9C11.6667 20.7 11.5 20.4 11.5 20C11.1667 20 10.7333 20.1 10.2 20.3C9.73333 20.5 9.36667 20.6 9.1 20.6V21.1C9.1 21.9667 9.26667 22.4 9.6 22.4L12 20.9ZM80.6 20.8C79.7333 20.8 79.3 21.0333 79.3 21.5L79.5 22.1C79.5667 22.1 79.7333 22.0333 80 21.9C80.3333 21.7 80.7 21.6 81.1 21.6C81.1667 21.6 81.2333 21.6667 81.3 21.8C81.3667 21.9333 81.4 22.0333 81.4 22.1C81.5333 22.0333 81.6333 21.9333 81.7 21.8C81.8333 21.6 81.9 21.4333 81.9 21.3C81.9 20.9667 81.4667 20.8 80.6 20.8ZM77.5 26.8C78.3 26.4667 79.4667 26.0667 81 25.6C81.2 25.5333 81.7 25.3667 82.5 25.1C83.3 24.8333 84.1333 24.4667 85 24H79.1L78.7 23.7L77.5 26.8ZM52.6 24C52.4667 24.5333 52.1667 25 51.7 25.4C51.2333 25.7333 50.5667 26.1667 49.7 26.7C49.5 26.8333 49 27.1667 48.2 27.7C47.4 28.1667 46.7667 28.8 46.3 29.6H46.7C47.4333 29.6 48.8667 29.4 51 29C53.2 28.6 54.3 28.2 54.3 27.8L52.6 24ZM44.8 26C44.3333 26.2 43.7667 26.3667 43.1 26.5C42.5 26.6333 42.0333 26.8333 41.7 27.1C41.4333 27.3667 41.1333 27.9333 40.8 28.8H41.2C41.4 28.8 42.6333 28.2333 44.9 27.1C47.2333 25.9 48.5 25.1333 48.7 24.8C47.8333 24.8667 47 25.1 46.2 25.5C45.4 25.8333 44.9333 26 44.8 26ZM38.1 35.4C38.0333 35.8 37.7667 36.5667 37.3 37.7C36.7667 38.9 36.5 39.8667 36.5 40.6C37.8333 39.7333 39.8667 38.5333 42.6 37L45.6 35.4C45.8 35.3333 45.9667 35.0667 46.1 34.6C46.3 34.0667 46.6333 33.8 47.1 33.8L47.5 33.9L47.1 34.6L54.6 31.5C55 31.3 55.2 30.6333 55.2 29.5C54 29.5 52.5 29.8 50.7 30.4C49.8333 31.4667 48.3 32.6667 46.1 34C43.9 35.2667 42.4 35.9 41.6 35.9C42.6 35.3 43.4 34.6333 44 33.9L43.5 33.8C43.2333 33.8 42.9333 33.9333 42.6 34.2C42.3333 34.4667 42 34.6 41.6 34.6C41.4667 34.6 41.3333 34.5667 41.2 34.5C41.1333 34.3667 41.1 34.2333 41.1 34.1C41.1 33.7667 41.3333 33.5 41.8 33.3C42.2667 33.1 42.8 32.9 43.4 32.7C45.2 32.1667 46.1667 31.5667 46.3 30.9H44.2C44.2 30.8333 44.1667 30.7 44.1 30.5C44.0333 30.3 44 30.0667 44 29.8C44 29.4 44.2667 29.0333 44.8 28.7C45.3333 28.3667 45.6 27.8667 45.6 27.2C45.4 27.6667 45.0667 28.0667 44.6 28.4C44.1333 28.7333 43.7667 29.0333 43.5 29.3C43.2333 29.5 43.1 29.8 43.1 30.2C43.1 30.4 43.1333 30.5667 43.2 30.7C42.6667 30.8333 41.9333 30.9667 41 31.1C40.1333 31.1667 39.5 31.4333 39.1 31.9C38.7 32.3 38.5 33.0333 38.5 34.1C38.5 34.4333 38.6 34.6 38.8 34.6L39.6 34.3L40.1 34.4C40.1 34.8 40.0333 35.0667 39.9 35.2C39.8333 35.3333 39.6667 35.4667 39.4 35.6C39.1333 35.7333 38.9333 35.8333 38.8 35.9C38.3333 35.9 38.1 35.7333 38.1 35.4ZM15.1 42.8C15.1 43.1333 15.1667 43.4667 15.3 43.8C15.5 44.0667 15.7667 44.2 16.1 44.2C16.5 44.2 16.8 44.1 17 43.9C17.2667 43.6333 17.5667 43.2333 17.9 42.7C18.3 42.1 18.7 41.8 19.1 41.8C19.3667 41.8 19.8 41.5667 20.4 41.1C21 40.6333 21.3667 40.3333 21.5 40.2C21.3667 40.2 21.2 40.2667 21 40.4C20.8 40.4667 20.5667 40.5333 20.3 40.6L19.9 40.2C19.6333 40.2 19.2 40.3333 18.6 40.6C18 40.8667 17.6333 41.1333 17.5 41.4L17.4 40.8C17.4 40.4 17.5333 40.1667 17.8 40.1C18.0667 39.9667 18.3667 39.9 18.7 39.9C19.1 39.8333 19.3667 39.8 19.5 39.8L22.6 38.5C20.8 32.7 19.8333 29.8 19.7 29.8C19.5667 29.8667 19.3667 30.0667 19.1 30.4C18.9 30.6667 18.7667 30.9333 18.7 31.2C18.5 31.7333 17.9 32.3667 16.9 33.1C16.1 33.7 15.5333 34.1667 15.2 34.5C14.8667 34.8333 14.7 35.3 14.7 35.9C15.5667 35.3667 16.2333 35.0333 16.7 34.9C17.1667 34.7 17.7667 34.6 18.5 34.6C19.3667 34.6 19.9667 34.7667 20.3 35.1L18.7 36.7L19.1 37.1C18.9 37.3667 18.3667 37.7667 17.5 38.3C16.7 38.8333 16.0667 39.3333 15.6 39.8C15.1333 40.2 14.9 40.6333 14.9 41.1C15.1667 41.1 15.4667 41.0333 15.8 40.9C16.1333 40.7667 16.4 40.7 16.6 40.7C16.6 41.2333 16.3333 41.6 15.8 41.8C15.3333 42 15.1 42.3333 15.1 42.8ZM12.4 32C12.6 32.3333 12.7333 32.8667 12.8 33.6C12.9333 34.2667 13.0667 34.7667 13.2 35.1C14.2 34.7 15.1667 34.0667 16.1 33.2C17.1 32.2667 17.6 31.3 17.6 30.3C16.8667 30.3 15.9 30.4333 14.7 30.7L15.2 31.2L12.4 32ZM85.8 39.8C85.8 39.2667 85.8667 38.6 86 37.8C86.1333 36.9333 86.2333 36.2667 86.3 35.8C86.7667 33.9333 87 32.2333 87 30.7C86.9333 30.8333 86.8 30.9667 86.6 31.1C86.4667 31.1667 86.3333 31.2 86.2 31.2C86.1333 31.2 86.0333 31.1667 85.9 31.1C85.8333 30.9667 85.8 30.8333 85.8 30.7C85.7333 31.5 84.8333 32.3 83.1 33.1C81.4333 33.9 79.9667 34.4 78.7 34.6C78.9 34.8 79.1333 35 79.4 35.2C79.7333 35.3333 79.9667 35.4333 80.1 35.5C80.4333 35.5 81.1 35.3667 82.1 35.1C83.1 34.7667 83.9 34.6 84.5 34.6C85.3667 34.6 85.8 34.8 85.8 35.2C85.8 35.5333 84.6667 36.2 82.4 37.2C80.2 38.2 78.9667 38.7 78.7 38.7C78.9 38.7 79.1667 38.7 79.5 38.7C79.9 38.6333 80.6 38.6 81.6 38.6C83.4 38.6 84.4333 38.9 84.7 39.5C84.2333 40.2333 83.6333 40.7667 82.9 41.1C82.1667 41.3667 81.1667 41.6333 79.9 41.9C78.7 42.1667 77.7 42.4667 76.9 42.8C76.1667 43.0667 75.5667 43.5333 75.1 44.2C75.9 43.8667 77.0667 43.6333 78.6 43.5C80 43.3667 81.1 43.1667 81.9 42.9C82.4333 42.9 82.7 43.2667 82.7 44C82.7 44.6 81.1 45.5667 77.9 46.9C76.0333 47.7667 75.1 48.3 75.1 48.5C75.7667 48.5 76.6333 48.3667 77.7 48.1C78.8333 47.8333 79.5667 47.7 79.9 47.7C80.1667 47.7 80.4333 47.8333 80.7 48.1C80.9667 48.3667 81.1667 48.6333 81.3 48.9V47.7C81.5667 47.7667 81.7667 47.9333 81.9 48.2C82.1 48.4 82.2333 48.6333 82.3 48.9C80.5 49.9667 78 51 74.8 52L75.6 52.1C76.5333 52.0333 78.0333 51.9 80.1 51.7C82.1667 51.4333 83.2667 51.2667 83.4 51.2C83.7333 51 84.0667 50.0333 84.4 48.3C84.8 46.5 85 45.5333 85 45.4L85.8 39.8ZM41.2 40.3C42.4667 40.3 43.6 40 44.6 39.4C45.6667 38.8 47 37.8667 48.6 36.6C50.5333 34.9333 52.1333 33.7667 53.4 33.1L53.1 33C52.6333 33 52.0667 33.2333 51.4 33.7C50.7333 34.1 50.1 34.3 49.5 34.3L46.7 37.1C46.1667 37.1 44.9667 37.5333 43.1 38.4C41.2333 39.2 40.0667 39.8 39.6 40.2L41.2 40.3ZM55.6 33C55.6 33.0667 55.5 33.1333 55.3 33.2C55.1 33.2667 55 33.3667 55 33.5L55.4 33.9L54.7 33.8C54.2333 33.8 53.7667 33.9333 53.3 34.2C52.9 34.4667 52.5 34.7667 52.1 35.1C51.7667 35.3667 51.4333 35.6333 51.1 35.9V36.7L52.6 36.3C53.6 36.3 54.4667 36.1333 55.2 35.8C55.9333 35.4 56.3 35.1 56.3 34.9C56.3 33.6333 56.0667 33 55.6 33ZM14 40.2C14.2667 39.8667 15.0667 39.1333 16.4 38C17.4667 37.2 18.2333 36.5 18.7 35.9C18.7 35.7667 18.6667 35.6667 18.6 35.6C18.5333 35.4667 18.4333 35.4 18.3 35.4C18.1667 35.4 17.9 35.5 17.5 35.7C17.1667 35.9 16.7667 36 16.3 36V36.7H15.6C14.2667 36.7 13.6 37.0667 13.6 37.8C13.6 38.0667 13.6333 38.4333 13.7 38.9C13.7667 39.3667 13.8667 39.8 14 40.2ZM55.8 47.7C55.8 47.9667 55.7 48.1667 55.5 48.3C55.3 48.4333 55 48.5667 54.6 48.7C54.2 48.7667 53.9333 48.9667 53.8 49.3L54.2 49.7C54.2667 49.6333 54.7 49.5 55.5 49.3C56.3 49.0333 56.7 48.6667 56.7 48.2C56.7 48 56.6667 47.8333 56.6 47.7C56.6 47.7 56.6333 47.7333 56.7 47.8C56.7667 47.8 56.8667 47.8 57 47.8C57.8667 47.8 58.5333 47.5333 59 47H57.8V46.4C58.2667 46.4 58.7667 46.3 59.3 46.1C59.9 45.8333 60.2 45.4667 60.2 45C60.2 43.9333 59.9 43.2333 59.3 42.9C59.1 43.5667 58.7667 44.1 58.3 44.5C57.8333 44.8333 57.1667 45.2 56.3 45.6C55.0333 46.1333 54.2 46.7 53.8 47.3C53.8 46.6333 54 46.1333 54.4 45.8C54.8667 45.4667 55.5333 45.1333 56.4 44.8C57.5333 44.4 58.2667 43.9333 58.6 43.4C58.1333 42.8 57.7333 42.5 57.4 42.5C57.2 42.5 57.0667 42.5333 57 42.6C57.4 42.2 58.0667 42 59 42C59 41.6667 58.8333 41.2 58.5 40.6C58.2333 39.9333 58.1 39.4333 58.1 39.1L58.2 38.7C57.9333 38.7667 57.4667 39.0333 56.8 39.5C56.1333 39.9 55.7333 40.1 55.6 40.1C55.6 40.0333 55.5667 40 55.5 40C55.4333 39.9333 55.4 39.8667 55.4 39.8C55.4667 39.6667 55.5667 39.5333 55.7 39.4C55.9 39.2 56.0667 39.0667 56.2 39L55.8 38.7C55.9333 38.5667 56.2333 38.3667 56.7 38.1C57.2333 37.8333 57.5 37.5333 57.5 37.2C57.5 37 57.4 36.8667 57.2 36.8C57 36.6667 56.8 36.6 56.6 36.6C56.4 36.6667 55.9667 36.8333 55.3 37.1C54.6333 37.3 54.1 37.4 53.7 37.4C53.5667 37.4 53.0667 37.7667 52.2 38.5C51.3333 39.2333 50.9 39.6667 50.9 39.8H53.4C53.2 40.1333 52.8333 40.4 52.3 40.6C51.7667 40.7333 51.5 40.8667 51.5 41L51.8 42.2C51.9333 42.0667 52.2333 41.7667 52.7 41.3C53.1667 40.7667 53.6667 40.5 54.2 40.5L54.6 40.6C54.2667 41.1333 53.7333 41.7333 53 42.4C52.3333 43.0667 52 43.4333 52 43.5C52.2667 43.5 52.6333 43.5667 53.1 43.7C53.5667 43.8333 53.8 44.0333 53.8 44.3C53.8 44.4333 53.6667 44.7 53.4 45.1C53.1333 45.4333 53 45.6333 53 45.7L53.4 47.7H55.8ZM50.3 38.7L52.3 37.4H51.5C51.0333 37.4 50.7 37.4667 50.5 37.6C50.3 37.6667 50.2 37.8667 50.2 38.2L50.3 38.7ZM74.4 39.5C73.6 40.3 73.2 41.6 73.2 43.4C73.4 43.2667 73.6333 43.1333 73.9 43C74.2333 42.8 74.5333 42.6667 74.8 42.6H75.1L80.6 40.2V40.6L81.4 39.8H77.9L77.5 39L77.2 39.8L74.8 40.2L74.4 39.5ZM16.7 47.7C16.7 48.4333 16.8333 48.9667 17.1 49.3C17.5 48.9 18.2333 48.3667 19.3 47.7C20.7667 46.8333 21.7667 46.0667 22.3 45.4C21.9667 45.4 21.6667 45.3333 21.4 45.2C21.2 45.0667 21.1 44.9333 21.1 44.8C21.1 44.3333 21.2 44.0667 21.4 44C21.6667 43.8667 22.0667 43.8 22.6 43.8C23.2 43.7333 23.6 43.6 23.8 43.4C23.6 42.2 23.2333 41 22.7 39.8C22.1 40.4 21.4333 40.9333 20.7 41.4C19.5 42.3333 18.6 43.1333 18 43.8C17.4 44.4 17.1 45.1 17.1 45.9C17.1667 45.9 17.3333 45.8333 17.6 45.7C17.9333 45.5 18.2333 45.4 18.5 45.4C18.5 46.2 18.3 46.6 17.9 46.6H17.3C16.9 46.6 16.7 46.9667 16.7 47.7ZM35.7 42.8C35.7 43.3333 35.5667 44.0667 35.3 45C35.0333 45.9333 34.9 46.6 34.9 47C35.3 46.9333 36.0667 46.5667 37.2 45.9C38.4 45.2333 39.2 44.7667 39.6 44.5C39.6 44.3667 39.5333 44.2333 39.4 44.1C39.3333 43.9 39.3 43.7667 39.3 43.7C40.2333 43.7 41.6 43.3333 43.4 42.6C45.2 41.8667 46.1 41.1333 46.1 40.4C45.2333 40.4 44.4 40.5667 43.6 40.9C42.8 41.1667 42.1333 41.3333 41.6 41.4C41 41.4 40.2 41.3667 39.2 41.3C38.2667 41.2333 37.4667 41.1333 36.8 41C36.6 41.0667 36.4333 41.4 36.3 42C36.1667 42.5333 35.9667 42.8 35.7 42.8ZM42.8 52.5C42.8667 52.3 43.2 51.6 43.8 50.4C44.5333 49.0667 45.1333 47.7333 45.6 46.4C46.1333 45.0667 46.5 43.5333 46.7 41.8C45.1667 42.6 44.1 43.4 43.5 44.2L36.5 47.3C37.1667 47.3 37.9 47.2 38.7 47C39.5667 46.7333 40.1333 46.5667 40.4 46.5L41.2 46.6V47C41.2 47.3333 40.2667 47.5667 38.4 47.7C36.9333 47.8333 35.7667 48.0333 34.9 48.3C34.0333 48.5 33.6 48.8667 33.6 49.4C33.6 49.5333 33.6333 49.6333 33.7 49.7L31.3 54.8C31.3 55.7333 31.4667 56.6667 31.8 57.6L34.2 56.4L34.6 56.5L34.5 56.8C34.5667 56.8667 34.6667 57 34.8 57.2C35 57.3333 35.1667 57.4667 35.3 57.6C35.0333 57.6 34.7333 57.5667 34.4 57.5C34.1333 57.3667 33.9333 57.2667 33.8 57.2C33.8 57.2667 33.4 57.5333 32.6 58C31.8667 58.4 31.1667 58.8 30.5 59.2C30.5 59.0667 30.4333 58.9667 30.3 58.9C30.1667 58.7667 30.0667 58.7 30 58.7C29.6667 58.7 28.7 59.3 27.1 60.5C25.3667 61.7667 24.2667 62.5 23.8 62.7C24.8 62.7 26.2333 62.3 28.1 61.5C30.1 60.7 31.6 60.3 32.6 60.3C32.7333 60.3 32.8667 60.3667 33 60.5C33.2 60.6333 33.3 60.7333 33.3 60.8C33.0333 61 32.6667 61.2 32.2 61.4C31.7333 61.6 31.3333 61.7 31 61.7C31 62.5 30.4667 63.2 29.4 63.8C28.4 64.4 27.3333 64.8333 26.2 65.1L28.2 63.1L28.5 63.5C28.7 63.3 28.9333 63.1 29.2 62.9C29.5333 62.7 29.7667 62.5333 29.9 62.4C30.1 62.2 30.2 61.9 30.2 61.5C29.6667 61.9 28.9667 62.2333 28.1 62.5C27.3 62.7667 26.5333 62.9667 25.8 63.1L26.2 63.5C25.6667 63.6333 24.9667 63.8667 24.1 64.2C23.3 64.5333 22.5333 64.7 21.8 64.7C21.8 65.2333 22 66.1667 22.4 67.5C22.8667 68.7667 23.2667 69.5667 23.6 69.9C23.8667 69.9 24.4333 69.6 25.3 69C26.2333 68.4 26.9333 67.9 27.4 67.5C27.4 67.4333 27.4333 67.3667 27.5 67.3C27.6333 67.1667 27.7 67.0667 27.7 67L27.8 67.5C27.8 67.9667 27.4 68.4333 26.6 68.9C25.8667 69.3 25.4667 69.7333 25.4 70.2L27.7 69C28.1667 69 28.7333 68.8333 29.4 68.5C30.0667 68.1 30.7333 67.7 31.4 67.3C32.5333 66.5667 33.2 66.2 33.4 66.2C33.9333 66.2 34.3 66.4667 34.5 67C34.2333 67.4667 33.8333 67.8333 33.3 68.1C32.7667 68.3667 32.2333 68.5 31.7 68.5C31.7 68.4333 31.7 68.4 31.7 68.4C31.7667 68.3333 31.8 68.2667 31.8 68.2C31.8 68.0667 31.6333 67.9333 31.3 67.8C30.9667 68.4667 30.3 69 29.3 69.4C28.3667 69.8 27.4667 70.0667 26.6 70.2V71C27.6667 71 28.8667 70.6 30.2 69.8C29.8 70.3333 28.8667 71 27.4 71.8C25.8 72.5333 25 73.2 25 73.8C25.7333 73.2667 27.1 72.7333 29.1 72.2C31.1667 71.6667 32.5667 71.4 33.3 71.4C33.7667 71.4 34.0333 71.5333 34.1 71.8C33.5667 72.2667 32.8 72.8 31.8 73.4L31.3 73C31.1667 73.2 30.9333 73.5333 30.6 74C30.2667 74.4 29.8667 74.8333 29.4 75.3C29.7333 75.3 30.6333 75.0333 32.1 74.5C33.6333 73.9 34.4333 73.5333 34.5 73.4C35.0333 72.3333 35.6667 70.7667 36.4 68.7C37.1333 66.8333 37.7333 65.3333 38.2 64.2C38.7333 63.0667 39.3667 62.0333 40.1 61.1C39.5 61.3667 38.8333 61.7667 38.1 62.3V61C39.0333 61 39.8 60.3667 40.4 59.1C41 57.8333 41.5 56.5333 41.9 55.2C42.3 53.8667 42.6 52.9667 42.8 52.5ZM55.8 42.6C55.8 43.1333 55.4333 43.4 54.7 43.4H54.2L55.8 42.6ZM19.4 56.6C19.4 57.3333 19.4667 58.1333 19.6 59C19.8 59.8667 20.1 60.3 20.5 60.3C20.9 60.3 21.3333 60.1333 21.8 59.8C22.3333 59.4667 22.7333 59.1 23 58.7C22.8667 58.7667 22.5 58.8 21.9 58.8C20.8333 58.8 20.3 58.6667 20.3 58.4C20.3 57.7333 21.1333 56.7 22.8 55.3C24.4667 53.9 26 52.7 27.4 51.7C26.4667 51.7 25.5 51.9667 24.5 52.5C23.5 53.0333 22.7667 53.4 22.3 53.6V52.8C22.3667 52.6 23 52.3 24.2 51.9C25.8667 51.3667 26.8 50.8667 27 50.4C26.8 50.3333 26.6333 50.1333 26.5 49.8C26.3667 49.4667 26.1667 49.3 25.9 49.3C25.4333 49.3 25.0667 49.4333 24.8 49.7V48.5C24.6 48.5667 24.1 48.7333 23.3 49C22.5 49.2 21.9 49.4333 21.5 49.7L21.4 49.3C21.4 48.9 21.5333 48.6333 21.8 48.5C22.0667 48.3667 22.5667 48.2333 23.3 48.1C24.5 47.9667 25.1 47.6 25.1 47C25.1 46.6667 24.9667 46.2 24.7 45.6C24.5 44.9333 24.3667 44.3 24.3 43.7C23.9 44.8333 23.3667 45.6667 22.7 46.2V45.7L19.9 48.5C19.6333 48.5 19.3 48.7 18.9 49.1C18.5 49.4333 18.3 49.7667 18.3 50.1C19.2333 49.9 20.0333 49.5 20.7 48.9C20.7 49.5667 20.5667 50 20.3 50.2C20.0333 50.4 19.5667 50.5333 18.9 50.6C18.3 50.6 17.8333 50.7 17.5 50.9C17.8333 51.3667 18.1 52.2667 18.3 53.6L23 50.1C23.2667 50.3 23.4 50.5 23.4 50.7C23.4 50.9667 22.9333 51.4 22 52C21.1333 52.6 20.5667 53.1333 20.3 53.6C20.9667 53.6 21.3667 53.7333 21.5 54C21.3 54.4667 20.9667 54.7 20.5 54.7C20.1 54.7 19.8 54.8 19.6 55C19.4667 55.1333 19.4 55.6667 19.4 56.6ZM72 49.7C71.9333 50.0333 71.7 50.4333 71.3 50.9C70.9 51.3667 70.7 51.8 70.7 52.2L72 52.5C72.4 52.2333 72.9333 52 73.6 51.8C74.2667 51.5333 74.7333 51.3667 75 51.3C77.3333 50.6333 78.8333 49.8333 79.5 48.9C78.9667 48.9 78.1667 49.0333 77.1 49.3C76.3 49.6333 75.5 49.8 74.7 49.8L73.2 49.7L72.8 49.3C73.4 48.5667 74.1 48 74.9 47.6C75.7667 47.1333 76.8667 46.6 78.2 46C79.7333 45.4 80.7 44.9 81.1 44.5L81.4 43.7C80.7333 44.3 80.2 44.6 79.8 44.6C79.4667 44.6 79.1333 44.5667 78.8 44.5C78.4667 44.3667 78.1667 44.2667 77.9 44.2C76.7667 44.9333 75.7667 45.3 74.9 45.3L73.8 45.2C73.4 45.2 73.0667 45.4667 72.8 46C72.6 46.5333 72.3333 47.7667 72 49.7ZM41.6 47C41.8 46.6667 42.0333 46.4333 42.3 46.3C42.6333 46.1667 43 46.1 43.4 46.1C43.8 46.0333 44 45.8 44 45.4V47L39.3 49.3C39.0333 49.3 38.6667 49.4667 38.2 49.8C37.7333 50.0667 37.4333 50.2667 37.3 50.4C37.2333 50.4 37.2 50.3 37.2 50.1C37.2 49.6333 37.4333 49.2667 37.9 49C38.3667 48.6667 39 48.3333 39.8 48C40.8 47.6667 41.4 47.3333 41.6 47ZM54.2 52C54.3333 52.5333 54.7333 52.8 55.4 52.8C55.6 52.8 56.3333 52.3333 57.6 51.4C58.8667 50.4667 59.8333 49.7333 60.5 49.2C60.0333 49.2 59.6 49.1667 59.2 49.1C58.8667 48.9667 58.6667 48.8667 58.6 48.8C58.6667 48.7333 59.1 48.6 59.9 48.4C60.7 48.2 61.1 47.8333 61.1 47.3C61.1 47.1667 61.0333 47.0667 60.9 47C60.5 47.0667 59.4333 47.5667 57.7 48.5C56.0333 49.3667 55.1333 49.9 55 50.1C55.5333 50.1 55.9667 50.0333 56.3 49.9C56.6333 49.7667 57 49.5667 57.4 49.3L57.8 49.7C57.6 49.7667 56.9333 50.0333 55.8 50.5C54.7333 50.9667 54.2 51.4667 54.2 52ZM56 53.6C56.4667 53.6 57.6667 53.2333 59.6 52.5C61.5333 51.7667 62.7667 51.2333 63.3 50.9C63.3 50.3667 63.0333 50 62.5 49.8C62.0333 49.6 61.7667 49.3 61.7 48.9C61.1 49.7 60.1333 50.6 58.8 51.6C57.4667 52.6 56.3333 53.2667 55.4 53.6H56ZM36.8 52.8H33.4C33.4 52.2667 33.7333 51.7 34.4 51.1C35.1333 50.4333 35.8333 50.1 36.5 50.1C36.3 50.5667 36.0333 50.9667 35.7 51.3C35.3667 51.5667 34.9667 51.8 34.5 52C35.1 52 35.7 51.9667 36.3 51.9C36.9 51.7667 37.5 51.7 38.1 51.7L36.8 52.8ZM35.3 56.4C35.0333 56.4 34.9 56.1333 34.9 55.6C35.7 55.5333 36.3333 55.3667 36.8 55.1C37.2667 54.7667 37.8667 54.3 38.6 53.7C39.2 53.1 39.7333 52.6667 40.2 52.4C40.6667 52.1333 41.2667 52 42 52V52.5C42 52.6333 41.1333 53.2 39.4 54.2C37.6667 55.2 36.7 56.0667 36.5 56.8C36.3 56.5333 36.0667 56.4 35.8 56.4H35.3ZM60.9 56.4C60.7 56.6667 60.2667 57.0333 59.6 57.5C58.9333 57.9667 58.4333 58.4 58.1 58.8C57.7667 59.1333 57.6 59.5667 57.6 60.1C57.8667 60.1 58.7667 59.5667 60.3 58.5C61.8333 57.3667 62.7 56.6667 62.9 56.4C62.9667 56.3333 63.0333 56.0333 63.1 55.5C63.2333 54.9 63.4333 54.5333 63.7 54.4C63.8333 55 64.1667 55.3 64.7 55.3C64.7 54.7667 64.6 54.1333 64.4 53.4C64.2 52.6667 64.1 52.2 64.1 52C63.7 52.0667 63.3667 52.3333 63.1 52.8C62.9 53.2 62.7 53.4667 62.5 53.6C62.5 53.6 61.7 54.3 60.1 55.7C59.0333 56.5 58.2667 57.1333 57.8 57.6L60.6 56L60.9 56.4ZM56.2 56.5C56.2 56.9667 56.3333 57.2 56.6 57.2L58.2 56C58.6 55.6 59.1667 55.0667 59.9 54.4C60.7 53.6667 61.3 53.1333 61.7 52.8L62.1 53.2L62.5 52.5L61.6 52.4C60.8 52.4 59.7 52.8 58.3 53.6C56.9 54.4 56.2 55.1333 56.2 55.8V56.5ZM82 56.7C82.0667 56.3667 82.2667 55.8 82.6 55C83 54.2 83.2 53.5667 83.2 53.1C83.2 52.8333 83.1667 52.6333 83.1 52.5H82.7L78.3 55.8C77.9 56.4 76.4667 57.2333 74 58.3C71.6 59.3 70.2667 59.8667 70 60V58.6C69.1333 58.6 67.7667 58.9 65.9 59.5C64.0333 60.0333 62.3333 60.7 60.8 61.5C59.3333 62.3 58.6 63.0333 58.6 63.7C58.6 64.1667 58.8333 64.4 59.3 64.4L59.8 64.3C60.1333 63.9667 61.5333 63.1667 64 61.9C66.5333 60.6333 68 60 68.4 60L68.9 60.3L61.7 63.9L61.4 64.3L62.4 64.4C62.9333 64.4 63.4667 64.3 64 64.1C64.6 63.9 65.1667 63.6667 65.7 63.4C66.2333 63.1333 66.7667 62.9 67.3 62.7C67.9 62.5 68.5 62.4 69.1 62.4C69.1 62.5333 69.1333 62.6333 69.2 62.7C69.2667 62.7 69.3 62.7333 69.3 62.8C69.3 63.1333 68 63.6333 65.4 64.3C62.8 64.9 60.7667 65.3 59.3 65.5C59.6333 65.9667 59.9333 66.8 60.2 68C60.2667 68.1333 60.3667 68.5333 60.5 69.2C60.7 69.8667 61 70.4667 61.4 71C61.8667 71 62.3 70.9 62.7 70.7C63.1667 70.5 63.4667 70.3667 63.6 70.3C64.3333 69.8333 65.0333 69.6 65.7 69.6V71.4H66.5C66.5 70.8667 66.3667 70.4667 66.1 70.2C66.4333 69.9333 66.8333 69.8 67.3 69.8C67.7 69.8 67.9667 69.9333 68.1 70.2C67.9 70.2 67.7 70.2667 67.5 70.4C67.3667 70.5333 67.2667 70.6667 67.2 70.8C67.2 71.0667 67.2667 71.2667 67.4 71.4C67.6 71.4667 67.7 71.5667 67.7 71.7C67.7 71.9 67.6667 72.0667 67.6 72.2C68.7333 71.4 70.4667 71 72.8 71V71.4C73.1333 71.2 73.6333 70.9667 74.3 70.7C74.9667 70.4333 75.5 70.2667 75.9 70.2C76.0333 70.2 76.1333 70.2667 76.2 70.4C76.3333 70.4667 76.4 70.5333 76.4 70.6C76.4 70.7333 76.3333 70.9 76.2 71.1C76.0667 71.3 75.9667 71.4 75.9 71.4L69.6 74.2H70C70.6 74.2 72 73.8667 74.2 73.2C76.4667 72.5333 77.7 71.9333 77.9 71.4C78.1667 70.6 78.4333 69.6667 78.7 68.6C78.9667 67.5333 79.1333 66.9333 79.2 66.8C79.5333 66.2 80.0667 64.7333 80.8 62.4C81.6 60 82 58.1 82 56.7ZM70.4 53.6C70.1333 53.9333 69.8333 54.6 69.5 55.6C69.1667 56.5333 68.9667 57.2 68.9 57.6C70.3 57.6 71.9 57.3667 73.7 56.9C75.5 56.3667 76.4 55.8333 76.4 55.3H75.1C75.4333 54.7667 76.1 54.3667 77.1 54.1C77.7 53.9 78.1667 53.7 78.5 53.5C78.8333 53.3 79.0333 52.9667 79.1 52.5C78.1667 52.7 76.7667 52.8667 74.9 53C72.9 53.1333 71.4 53.3333 70.4 53.6ZM28.2 54.4C28.2 54.2 28.1333 53.9333 28 53.6C27.9333 53.2667 27.8333 53 27.7 52.8C26.5 53.2 24.8333 54.6667 22.7 57.2C22.9 57.1333 23.8667 56.8 25.6 56.2C27.3333 55.5333 28.2 54.9333 28.2 54.4ZM39.8 55.6C40.5333 55.6 40.9 55.8667 40.9 56.4C40.9 56.7333 40.5 57.1333 39.7 57.6C38.9667 58 38.3333 58.3333 37.8 58.6C37.2667 58.8 36.8667 58.9667 36.6 59.1C35.1333 59.7 34.3 60.1 34.1 60.3L33.7 60L39.6 56.4L39.1 56.3C38.8333 56.3 38.5 56.4 38.1 56.6C37.7667 56.8 37.5 56.9 37.3 56.9V56.4C37.3 56.1333 37.5667 55.9333 38.1 55.8C38.7 55.6667 39.2667 55.6 39.8 55.6ZM65.7 55.6C65.1 56.4 64.1667 57.0667 62.9 57.6V58C63.4333 57.8667 64.0333 57.6333 64.7 57.3C65.4333 56.9 65.8 56.5333 65.8 56.2L65.7 55.6ZM21.5 64.3C21.7667 64.1 22.0333 63.7667 22.3 63.3C22.5667 62.7667 22.8 62.4333 23 62.3L26.2 60.3C26.3333 60.2333 26.5667 59.9 26.9 59.3C27.2333 58.6333 27.5667 58.3 27.9 58.3C28.0333 58.3 28.1333 58.3333 28.2 58.4C28.3333 58 28.4333 57.6 28.5 57.2C28.5667 56.8 28.6 56.5333 28.6 56.4H28.2C27.9333 56.4 26.9667 57.0333 25.3 58.3C23.6333 59.5 22.5 60.4333 21.9 61.1C22.9667 60.9 24.4 60.2667 26.2 59.2C26 59.9333 25.0333 60.7 23.3 61.5C23.1667 61.5667 22.8667 61.7333 22.4 62C22 62.2 21.6667 62.4333 21.4 62.7C21.2 62.9 21.1 63.1 21.1 63.3V63.7C21.1 64.0333 21.2333 64.2333 21.5 64.3ZM26.6 56.4C25.9333 56.6 25.3667 56.8 24.9 57C24.5 57.2 24.1333 57.5333 23.8 58C24.2667 58 24.7667 57.8333 25.3 57.5C25.8333 57.1667 26.2667 56.8 26.6 56.4ZM62.3 58.1C61.3667 58.1 60.9 58.4667 60.9 59.2C60.9 59.2667 60.9333 59.3333 61 59.4C61.1333 59.4667 61.2667 59.5 61.4 59.5C62 59.1667 62.3 58.7 62.3 58.1ZM78.7 59.1C79.1667 59.1 79.4333 59.2333 79.5 59.5C79.2333 59.7667 78.5 60.2 77.3 60.8C76.1667 61.3333 75.0667 61.8333 74 62.3C73.7333 61.9667 73.6 61.3 73.6 60.3L74.8 60C74.8 60.2 74.8333 60.4 74.9 60.6C75.0333 60.7333 75.2 60.8 75.4 60.8C75.4667 60.8 75.7667 60.5333 76.3 60C76.8333 59.4 77.5 59.1 78.3 59.1H78.7ZM73.2 62.7C73.2 62.8333 72.7 62.9667 71.7 63.1C70.7667 63.1667 70.2 63.4333 70 63.9L69.6 63.5C69.6667 63.4333 70 63.2 70.6 62.8C71.2667 62.3333 71.7 61.6667 71.9 60.8H72.8L73.2 62.7ZM25 66.2C25.5333 66 26.3333 65.6333 27.4 65.1L32.1 63.1C32.9667 62.8333 33.8667 62.6333 34.8 62.5C35.9333 62.3667 36.8 62.1667 37.4 61.9C37.4 62.4333 37.0667 62.9 36.4 63.3C35.8 63.6333 34.9333 64 33.8 64.4C32.6667 64.8 31.8333 65.1667 31.3 65.5C30.9667 65.7 30.5333 66.0333 30 66.5C29.5333 66.9 29.0333 67.2333 28.5 67.5C28.5667 67.3 28.7 66.9667 28.9 66.5C29.1667 65.9667 29.4667 65.7 29.8 65.7V66.2C30.1333 65.7333 30.6667 65.2667 31.4 64.8C32.2 64.2667 32.6333 63.9667 32.7 63.9C32.1667 63.9 31 64.2667 29.2 65C27.4 65.7333 26.5 66.3 26.5 66.7C26.5 66.9 26.5333 67 26.6 67C26.2667 67.1333 25.8667 67.2667 25.4 67.4C24.9333 67.4667 24.6 67.5 24.4 67.5C24 67.5 23.8 67.2333 23.8 66.7C23.8 66.3667 23.9 66 24.1 65.6C24.3667 65.2 24.5667 65 24.7 65L25.4 65.2C25.4 65.4 25.3333 65.6 25.2 65.8C25.0667 65.9333 25 66.0667 25 66.2ZM72 66C72.4667 66 72.8667 65.7 73.2 65.1C73.5333 64.4333 73.8 64.0333 74 63.9C74.7333 63.3 76.2 63 78.4 63C78.4 63.4667 77.5333 64.1667 75.8 65.1C74.0667 65.9667 72.6667 66.6 71.6 67L72 66ZM61.3 68C61.3 67.6667 61.5 67.3667 61.9 67.1C62.3 66.8333 62.6667 66.6 63 66.4C63.3333 66.2 63.6 66.0667 63.8 66C65.2667 65.3333 66.1667 64.7667 66.5 64.3C66.5 64.7667 66.3 65.2 65.9 65.6C65.5 65.9333 65.0333 66.2667 64.5 66.6C63.9667 66.8667 63.5667 67.1 63.3 67.3H64.6C64.6 68.1667 63.8333 68.6 62.3 68.6C62.0333 68.6 61.8 68.5667 61.6 68.5C61.4 68.4333 61.3 68.2667 61.3 68ZM70.2 66.5L68.6 67.3L68.2 66.8L68.6 66C68.6 66.1333 68.6333 66.2667 68.7 66.4C68.8333 66.4667 68.9333 66.5 69 66.5C69.1333 66.5 69.3333 66.4 69.6 66.2C69.9333 66 70.1333 65.9 70.2 65.9V66.5ZM76.7 67L76.8 67.3C76.8 67.7 76.3667 68.1333 75.5 68.6C74.6333 69 73.7 69.3667 72.7 69.7C71.7667 69.9667 71.1333 70.1333 70.8 70.2L71.2 69.4C70.6667 69.4 70.2667 69.5333 70 69.8L69.5 69.4C69.5 69.2 69.6333 69 69.9 68.8C70.1667 68.6 70.4 68.5 70.6 68.5L71.6 68.6V67.8C71.6 67.6667 72.2333 67.4 73.5 67C74.8333 66.6 75.8 66.3333 76.4 66.2C76.3333 66.3333 76.2333 66.5 76.1 66.7C75.9667 66.9 75.9 67.1667 75.9 67.5L76.7 67ZM23.8 71.9C23.8 72.1 23.8667 72.2667 24 72.4C24.1333 72.5333 24.2667 72.6 24.4 72.6C24.7333 72.6 25.0333 72.4333 25.3 72.1C25.5667 71.7 25.7333 71.3333 25.8 71C25.6 71.0667 25.2 71.2333 24.6 71.5C24.0667 71.7 23.8 71.8333 23.8 71.9ZM61.6 72.3C61.6 72.5 61.7 72.6667 61.9 72.8C62.1 72.9333 62.3 73 62.5 73C62.9 73 63.2333 72.9 63.5 72.7C63.8333 72.5 64.0333 72.2 64.1 71.8C63.7667 72.1333 63.1333 72.3 62.2 72.3H61.6ZM62.8 74.3C62.8 74.8333 62.9 75.3 63.1 75.7C63.3 76.1 63.5667 76.3 63.9 76.3C64.4333 76.3 65.1 76.0333 65.9 75.5C66.7 74.9667 67.4 74.4 68 73.8C68.6667 73.1333 69 72.7333 69 72.6C68.4667 72.7333 67.9 72.9 67.3 73.1C66.7 73.2333 66.3 73.3333 66.1 73.4C66.1667 73.2667 66.3 73.0333 66.5 72.7C66.7667 72.3 66.9 72 66.9 71.8C65.7667 72.0667 65.2 72.2667 65.2 72.4C65.2 72.4667 65.3667 72.6667 65.7 73C64.5 73.8667 63.5333 74.3 62.8 74.3ZM26 77.5C26.2 77.5 26.5667 77.0667 27.1 76.2C27.7 75.2667 28.7333 74.3333 30.2 73.4H29.5C28.8333 73.4 27.9 73.5333 26.7 73.8C25.5667 74.0667 24.8667 74.4667 24.6 75C24.6 75.5333 24.7333 76.1 25 76.7C25.2667 77.2333 25.6 77.5 26 77.5ZM75.6 80.1C76 79.5667 76.3667 78.6333 76.7 77.3C77.0333 75.9 77.2 74.7333 77.2 73.8C77 73.8 76.7667 73.8667 76.5 74C76.3 74.1333 76.1 74.2 75.9 74.2C74.2333 74.4 72.2 74.9333 69.8 75.8C69.3333 75.9333 68.1 76.3 66.1 76.9V77.5C66.5 77.5 67 77.4 67.6 77.2C68.2 76.9333 68.6667 76.8 69 76.8C69.8667 76.8 70.7667 76.9667 71.7 77.3C72.7 77.5667 73.2 78.0333 73.2 78.7C73.2 78.7667 73.1667 78.9 73.1 79.1C73.0333 79.3667 72.9333 79.5667 72.8 79.7L74 79.6C75.0667 79.6 75.6 79.7667 75.6 80.1ZM32.6 77.3C33.4667 77.3 33.9 76.5667 33.9 75.1C33.1667 75.1 32.3 75.4667 31.3 76.2C31.1667 76.2667 30.9 76.4333 30.5 76.7C30.1667 76.9 29.8 77 29.4 77C29.2667 77 29.1 76.9333 28.9 76.8C28.7667 76.6667 28.6333 76.6 28.5 76.6C28.3667 76.6667 28.2 76.7667 28 76.9C27.8667 77.0333 27.7667 77.1667 27.7 77.3H32.6Z" fill="black"/>
</svg>
